<svg width="17" height="16" viewBox="0 0 17 16" fill="none" xmlns="http://www.w3.org/2000/svg">
<g clip-path="url(#clip0_951_2232)">
<path d="M8.49984 12.3333C6.93984 12.3333 5.6665 11.06 5.6665 9.5C5.6665 9.22667 5.89317 9 6.1665 9C6.43984 9 6.6665 9.22667 6.6665 9.5C6.6665 10.5133 7.4865 11.3333 8.49984 11.3333C9.51317 11.3333 10.3332 10.5133 10.3332 9.5C10.3332 9.22667 10.5598 9 10.8332 9C11.1065 9 11.3332 9.22667 11.3332 9.5C11.3332 11.06 10.0598 12.3333 8.49984 12.3333Z" />
<path d="M3.95976 4.25329C3.83309 4.25329 3.69976 4.19996 3.60643 4.10663C3.41309 3.91329 3.41309 3.59329 3.60643 3.39996L6.02643 0.979961C6.21976 0.786628 6.53976 0.786628 6.73309 0.979961C6.92643 1.17329 6.92643 1.49329 6.73309 1.68663L4.31309 4.10663C4.21309 4.19996 4.08643 4.25329 3.95976 4.25329Z" />
<path d="M13.0399 4.25329C12.9132 4.25329 12.7866 4.20663 12.6866 4.10663L10.2666 1.68663C10.0732 1.49329 10.0732 1.17329 10.2666 0.979961C10.4599 0.786628 10.7799 0.786628 10.9732 0.979961L13.3932 3.39996C13.5866 3.59329 13.5866 3.91329 13.3932 4.10663C13.2999 4.19996 13.1666 4.25329 13.0399 4.25329Z" />
<path d="M13.9735 7.06657C13.9268 7.06657 13.8802 7.06657 13.8335 7.06657H13.6802H3.16683C2.70016 7.07324 2.16683 7.07324 1.78016 6.68657C1.4735 6.38657 1.3335 5.9199 1.3335 5.23324C1.3335 3.3999 2.6735 3.3999 3.3135 3.3999H13.6868C14.3268 3.3999 15.6668 3.3999 15.6668 5.23324C15.6668 5.92657 15.5268 6.38657 15.2202 6.68657C14.8735 7.03324 14.4068 7.06657 13.9735 7.06657ZM3.3135 6.06657H13.8402C14.1402 6.07324 14.4202 6.07324 14.5135 5.9799C14.5602 5.93324 14.6602 5.77324 14.6602 5.23324C14.6602 4.4799 14.4735 4.3999 13.6802 4.3999H3.3135C2.52016 4.3999 2.3335 4.4799 2.3335 5.23324C2.3335 5.77324 2.44016 5.93324 2.48016 5.9799C2.5735 6.06657 2.86016 6.06657 3.1535 6.06657H3.3135Z" />
<path d="M10.4268 15.1665H6.40683C4.02016 15.1665 3.48683 13.7465 3.28016 12.5132L2.34016 6.7465C2.2935 6.47317 2.48016 6.21984 2.7535 6.17317C3.02016 6.1265 3.28016 6.31317 3.32683 6.5865L4.26683 12.3465C4.46016 13.5265 4.86016 14.1665 6.40683 14.1665H10.4268C12.1402 14.1665 12.3335 13.5665 12.5535 12.4065L13.6735 6.57317C13.7268 6.29984 13.9868 6.11984 14.2602 6.17984C14.5335 6.23317 14.7068 6.49317 14.6535 6.7665L13.5335 12.5998C13.2735 13.9532 12.8402 15.1665 10.4268 15.1665Z" />
</g>
<defs>
<clipPath id="clip0_951_2232">
<rect width="16" height="16" fill="white" transform="translate(0.5)"/>
</clipPath>
</defs>
</svg>
