<svg width="72" height="72" viewBox="0 0 72 72" fill="none" xmlns="http://www.w3.org/2000/svg">
<rect width="72" height="72" rx="10" fill="#F4F4F4"/>
<path d="M40.5 46.75H32.5C26.75 46.75 26.75 43.7 26.75 41V40C26.75 37.77 26.75 35.25 31.5 35.25C32.69 35.25 33.13 35.54 33.75 36C33.78 36.03 33.82 36.05 33.85 36.09L34.87 37.17C35.73 38.08 37.29 38.08 38.15 37.17L39.17 36.09C39.2 36.06 39.23 36.03 39.27 36C39.89 35.53 40.33 35.25 41.52 35.25C46.27 35.25 46.27 37.77 46.27 40V41C46.25 44.82 44.32 46.75 40.5 46.75ZM31.5 36.75C28.25 36.75 28.25 37.77 28.25 40V41C28.25 43.74 28.25 45.25 32.5 45.25H40.5C43.48 45.25 44.75 43.98 44.75 41V40C44.75 37.77 44.75 36.75 41.5 36.75C40.78 36.75 40.63 36.84 40.2 37.16L39.23 38.19C38.51 38.95 37.54 39.37 36.5 39.37C35.46 39.37 34.49 38.95 33.77 38.19L32.8 37.16C32.37 36.84 32.22 36.75 31.5 36.75Z" fill="#003087"/>
<path d="M43.5 36.75C43.09 36.75 42.75 36.41 42.75 36V30C42.75 27.77 42.75 26.75 39.5 26.75H33.5C30.25 26.75 30.25 27.77 30.25 30V36C30.25 36.41 29.91 36.75 29.5 36.75C29.09 36.75 28.75 36.41 28.75 36V30C28.75 27.77 28.75 25.25 33.5 25.25H39.5C44.25 25.25 44.25 27.77 44.25 30V36C44.25 36.41 43.91 36.75 43.5 36.75Z" fill="#003087"/>
<path d="M38.3808 33.9805H35.0508C34.6408 33.9805 34.3008 33.6405 34.3008 33.2305C34.3008 32.8205 34.6408 32.4805 35.0508 32.4805H38.3808C38.7908 32.4805 39.1308 32.8205 39.1308 33.2305C39.1308 33.6405 38.8008 33.9805 38.3808 33.9805Z" fill="#003087"/>
<path d="M39.2188 30.9805H34.2188C33.8088 30.9805 33.4688 30.6405 33.4688 30.2305C33.4688 29.8205 33.8088 29.4805 34.2188 29.4805H39.2188C39.6287 29.4805 39.9688 29.8205 39.9688 30.2305C39.9688 30.6405 39.6388 30.9805 39.2188 30.9805Z" fill="#003087"/>
</svg>
