<svg width="16" height="16" viewBox="0 0 16 16" fill="none" xmlns="http://www.w3.org/2000/svg">
    <g clip-path="url(#clip0_2939_8658)">
        <path
            d="M11.7733 15.1142C11.42 15.1142 10.9667 15.0009 10.4 14.6675L8.40666 13.4875C8.2 13.3675 7.8 13.3675 7.6 13.4875L5.6 14.6675C4.42 15.3675 3.72666 15.0875 3.41333 14.8609C3.10666 14.6342 2.62666 14.0542 2.94 12.7209L3.41333 10.6742C3.46666 10.4609 3.36 10.0942 3.2 9.93419L1.54666 8.28086C0.719997 7.45419 0.786664 6.74753 0.899997 6.40086C1.01333 6.05419 1.37333 5.44086 2.52 5.24753L4.64666 4.89419C4.84666 4.86086 5.13333 4.64753 5.22 4.46753L6.4 2.11419C6.93333 1.04086 7.63333 0.880859 8 0.880859C8.36666 0.880859 9.06666 1.04086 9.6 2.11419L10.7733 4.46086C10.8667 4.64086 11.1533 4.85419 11.3533 4.88753L13.48 5.24086C14.6333 5.43419 14.9933 6.04753 15.1 6.39419C15.2067 6.74086 15.2733 7.44753 14.4533 8.27419L12.8 9.93419C12.64 10.0942 12.54 10.4542 12.5867 10.6742L13.06 12.7209C13.3667 14.0542 12.8933 14.6342 12.5867 14.8609C12.42 14.9809 12.1533 15.1142 11.7733 15.1142ZM8 12.3942C8.32666 12.3942 8.65333 12.4742 8.91333 12.6275L10.9067 13.8075C11.4867 14.1542 11.8533 14.1542 11.9933 14.0542C12.1333 13.9542 12.2333 13.6009 12.0867 12.9475L11.6133 10.9009C11.4867 10.3475 11.6933 9.63419 12.0933 9.22752L13.7467 7.57419C14.0733 7.24753 14.22 6.92753 14.1533 6.70753C14.08 6.48753 13.7733 6.30753 13.32 6.23419L11.1933 5.88086C10.68 5.79419 10.12 5.38086 9.88666 4.91419L8.71333 2.56753C8.5 2.14086 8.23333 1.88753 8 1.88753C7.76666 1.88753 7.5 2.14086 7.29333 2.56753L6.11333 4.91419C5.88 5.38086 5.32 5.79419 4.80666 5.88086L2.68666 6.23419C2.23333 6.30753 1.92666 6.48753 1.85333 6.70753C1.78 6.92753 1.93333 7.25419 2.26 7.57419L3.91333 9.22752C4.31333 9.62753 4.52 10.3475 4.39333 10.9009L3.92 12.9475C3.76666 13.6075 3.87333 13.9542 4.01333 14.0542C4.15333 14.1542 4.51333 14.1475 5.1 13.8075L7.09333 12.6275C7.34666 12.4742 7.67333 12.3942 8 12.3942Z"
            fill="currentColor" />
    </g>
    <defs>
        <clipPath id="clip0_2939_8658">
            <rect width="16" height="16" fill="white" />
        </clipPath>
    </defs>
</svg>