<svg width="13" height="16" viewBox="0 0 13 16" fill="none" xmlns="http://www.w3.org/2000/svg">
<path d="M2.54166 4.33333C2.54166 2.14721 4.31386 0.375 6.49999 0.375C8.68612 0.375 10.4583 2.14721 10.4583 4.33333C10.4583 6.51946 8.68612 8.29167 6.49999 8.29167C4.31386 8.29167 2.54166 6.51946 2.54166 4.33333ZM6.49999 6.70833C7.81167 6.70833 8.87499 5.64501 8.87499 4.33333C8.87499 3.02166 7.81167 1.95833 6.49999 1.95833C5.18831 1.95833 4.12499 3.02166 4.12499 4.33333C4.12499 5.64501 5.18831 6.70833 6.49999 6.70833Z" fill="#7E7E7E"/>
<path d="M2.02165 10.9383C0.833917 12.1261 0.166656 13.737 0.166656 15.4167H1.74999C1.74999 14.1569 2.25043 12.9487 3.14123 12.0579C4.03203 11.1671 5.24021 10.6667 6.49999 10.6667C7.75977 10.6667 8.96795 11.1671 9.85875 12.0579C10.7495 12.9487 11.25 14.1569 11.25 15.4167H12.8333C12.8333 13.737 12.1661 12.1261 10.9783 10.9383C9.7906 9.75059 8.17969 9.08333 6.49999 9.08333C4.82029 9.08333 3.20938 9.75059 2.02165 10.9383Z" fill="#7E7E7E"/>
</svg>
